<svg width="939" height="323" viewBox="0 0 939 323" fill="none" xmlns="http://www.w3.org/2000/svg">
<path d="M117.792 275.72C130.272 275.72 142.176 273.32 153.504 268.52C164.832 263.528 174.336 256.712 182.016 248.072L196.416 263.048C186.432 273.416 174.528 281.576 160.704 287.528C146.88 293.288 132.384 296.168 117.216 296.168C102.624 296.168 88.896 293.48 76.032 288.104C63.36 282.728 52.32 275.432 42.912 266.216C33.504 256.808 26.112 245.768 20.736 233.096C15.36 220.232 12.672 206.6 12.672 192.2C12.672 177.8 15.36 164.264 20.736 151.592C26.112 138.728 33.504 127.688 42.912 118.472C52.32 109.064 63.36 101.672 76.032 96.296C88.896 90.92 102.624 88.232 117.216 88.232C132.768 88.232 147.456 91.208 161.28 97.16C175.296 102.92 187.2 110.984 196.992 121.352L182.304 136.904C174.432 128.072 164.64 121.16 152.928 116.168C141.408 111.176 129.504 108.68 117.216 108.68C105.696 108.68 94.848 110.888 84.672 115.304C74.688 119.528 66.048 125.384 58.752 132.872C51.456 140.168 45.696 149 41.472 159.368C37.248 169.544 35.136 180.488 35.136 192.2C35.136 203.912 37.248 214.952 41.472 225.32C45.696 235.496 51.456 244.328 58.752 251.816C66.24 259.112 74.976 264.968 84.96 269.384C95.136 273.608 106.08 275.72 117.792 275.72ZM213.739 220.712C213.739 210.344 215.659 200.552 219.499 191.336C223.339 182.12 228.523 174.152 235.051 167.432C241.771 160.712 249.643 155.432 258.667 151.592C267.691 147.752 277.291 145.832 287.467 145.832C297.643 145.832 307.147 147.752 315.979 151.592C325.003 155.432 332.779 160.712 339.307 167.432C346.027 174.152 351.307 182.12 355.147 191.336C358.987 200.552 360.907 210.344 360.907 220.712C360.907 231.272 358.987 241.16 355.147 250.376C351.307 259.592 346.027 267.56 339.307 274.28C332.779 281 325.003 286.28 315.979 290.12C307.147 293.96 297.643 295.88 287.467 295.88C277.291 295.88 267.691 293.96 258.667 290.12C249.643 286.28 241.771 281 235.051 274.28C228.523 267.56 223.339 259.592 219.499 250.376C215.659 241.16 213.739 231.272 213.739 220.712ZM287.467 276.872C294.763 276.872 301.579 275.432 307.915 272.552C314.443 269.672 320.011 265.736 324.619 260.744C329.419 255.56 333.163 249.608 335.851 242.888C338.539 235.976 339.883 228.584 339.883 220.712C339.883 212.84 338.539 205.544 335.851 198.824C333.163 191.912 329.419 185.96 324.619 180.968C320.011 175.976 314.443 172.04 307.915 169.16C301.579 166.28 294.763 164.84 287.467 164.84C280.171 164.84 273.259 166.28 266.731 169.16C260.395 172.04 254.827 175.976 250.027 180.968C245.419 185.96 241.675 191.912 238.795 198.824C236.107 205.544 234.763 212.84 234.763 220.712C234.763 228.584 236.107 235.976 238.795 242.888C241.483 249.608 245.131 255.56 249.739 260.744C254.539 265.736 260.203 269.672 266.731 272.552C273.259 275.432 280.171 276.872 287.467 276.872ZM411.831 86.504V293H390.519V91.4L411.831 86.504ZM458.831 121.064C454.991 121.064 451.631 119.624 448.751 116.744C445.871 113.864 444.431 110.504 444.431 106.664C444.431 102.632 445.871 99.272 448.751 96.584C451.631 93.704 454.991 92.264 458.831 92.264C462.863 92.264 466.223 93.704 468.911 96.584C471.791 99.272 473.231 102.632 473.231 106.664C473.231 110.504 471.791 113.864 468.911 116.744C466.223 119.624 462.863 121.064 458.831 121.064ZM469.487 148.712V293H448.175V148.712H469.487ZM491.144 273.128L504.104 259.304C510.632 265.448 517.928 270.248 525.992 273.704C534.248 276.968 542.6 278.6 551.048 278.6C562.568 278.6 571.976 276.2 579.272 271.4C586.568 266.6 590.216 260.36 590.216 252.68C590.216 246.536 588.008 241.736 583.592 238.28C579.368 234.632 572.648 232.136 563.432 230.792L538.376 227.336C523.976 225.224 513.224 221 506.12 214.664C499.208 208.136 495.752 199.4 495.752 188.456C495.752 176.36 500.84 166.376 511.016 158.504C521.192 150.44 534.152 146.408 549.896 146.408C560.264 146.408 570.056 147.944 579.272 151.016C588.68 154.088 597.8 158.888 606.632 165.416L595.4 179.816C587.336 174.44 579.464 170.408 571.784 167.72C564.296 165.032 556.616 163.688 548.744 163.688C538.952 163.688 530.888 165.896 524.552 170.312C518.408 174.728 515.336 180.488 515.336 187.592C515.336 193.736 517.448 198.536 521.672 201.992C525.896 205.256 532.712 207.56 542.12 208.904L567.176 212.36C581.576 214.28 592.328 218.6 599.432 225.32C606.728 231.848 610.376 240.584 610.376 251.528C610.376 257.672 608.84 263.528 605.768 269.096C602.888 274.472 598.76 279.176 593.384 283.208C588.2 287.048 582.056 290.12 574.952 292.424C567.848 294.536 560.168 295.592 551.912 295.592C540.008 295.592 528.776 293.672 518.216 289.832C507.848 285.8 498.824 280.232 491.144 273.128ZM757.305 277.736C749.241 283.688 740.793 288.2 731.961 291.272C723.321 294.152 713.817 295.592 703.449 295.592C693.081 295.592 683.289 293.672 674.073 289.832C665.049 285.992 657.177 280.712 650.457 273.992C643.929 267.272 638.745 259.4 634.905 250.376C631.065 241.16 629.145 231.272 629.145 220.712C629.145 210.344 630.969 200.648 634.617 191.624C638.457 182.6 643.545 174.728 649.881 168.008C656.217 161.288 663.705 156.008 672.345 152.168C681.177 148.328 690.489 146.408 700.281 146.408C709.881 146.408 718.809 148.328 727.065 152.168C735.513 156.008 742.713 161.288 748.665 168.008C754.809 174.728 759.609 182.6 763.065 191.624C766.713 200.648 768.537 210.344 768.537 220.712V227.336H650.169C651.705 241.544 657.561 253.352 667.737 262.76C677.913 272.168 690.105 276.872 704.313 276.872C711.801 276.872 719.097 275.72 726.201 273.416C733.305 271.112 739.257 267.848 744.057 263.624L757.305 277.736ZM699.705 165.128C687.225 165.128 676.377 169.352 667.161 177.8C658.137 186.248 652.665 197.096 650.745 210.344H747.225C745.305 197.672 739.833 187.016 730.809 178.376C721.977 169.544 711.609 165.128 699.705 165.128ZM866.005 276.296C873.685 276.296 881.077 274.76 888.181 271.688C895.285 268.616 901.909 264.104 908.053 258.152L921.301 272.552C913.621 279.848 904.981 285.512 895.381 289.544C885.781 293.576 875.797 295.592 865.429 295.592C855.253 295.592 845.653 293.672 836.629 289.832C827.605 285.992 819.829 280.712 813.301 273.992C806.773 267.272 801.589 259.304 797.749 250.088C793.909 240.872 791.989 231.08 791.989 220.712C791.989 210.344 793.909 200.648 797.749 191.624C801.589 182.408 806.773 174.44 813.301 167.72C819.829 161 827.605 155.72 836.629 151.88C845.653 147.848 855.253 145.832 865.429 145.832C875.797 145.832 885.877 147.848 895.669 151.88C905.653 155.912 914.389 161.48 921.877 168.584L908.341 184.136C902.581 178.184 895.957 173.576 888.469 170.312C880.981 167.048 873.397 165.416 865.717 165.416C858.421 165.416 851.509 166.856 844.981 169.736C838.453 172.616 832.789 176.552 827.989 181.544C823.381 186.536 819.733 192.392 817.045 199.112C814.357 205.832 813.013 213.032 813.013 220.712C813.013 228.584 814.357 235.976 817.045 242.888C819.925 249.608 823.669 255.464 828.277 260.456C833.077 265.256 838.741 269.096 845.269 271.976C851.797 274.856 858.709 276.296 866.005 276.296Z" fill="white"/>
<path d="M254.284 256.468L302.105 240.372L272.511 206.58L254.284 256.468Z" fill="white"/>
<path d="M320.404 190.532L302.178 240.42L272.583 206.628L320.404 190.532Z" fill="white"/>
<path d="M279.336 232.653L291.741 228.477L284.064 219.712L279.336 232.653Z" fill="black"/>
<path d="M296.488 215.548L291.76 228.49L284.083 219.724L296.488 215.548Z" fill="black"/>
</svg>
